<?xml version="1.0" standalone="no"?><!DOCTYPE svg PUBLIC "-//W3C//DTD SVG 1.1//EN" "http://www.w3.org/Graphics/SVG/1.1/DTD/svg11.dtd"><svg t="1690969074018" class="icon" viewBox="0 0 1024 1024" version="1.1" xmlns="http://www.w3.org/2000/svg" p-id="3369" xmlns:xlink="http://www.w3.org/1999/xlink" width="200" height="200"><path d="M163.84 0h696.32c90.112 0 163.84 73.728 163.84 163.84v696.32c0 90.112-73.728 163.84-163.84 163.84H163.84c-90.112 0-163.84-73.728-163.84-163.84V163.84c0-90.112 73.728-163.84 163.84-163.84z" fill="#ffd766" p-id="3370" data-spm-anchor-id="a313x.search_index.0.i0.35503a81CBzEUf" class="selected"></path><path d="M733.184 632.832h-26.624v-83.968c0-2.048-2.048-4.096-4.096-4.096h-174.08v-83.968h114.688c4.096 0 8.192-4.096 8.192-8.192v-126.976c0-4.096-4.096-8.192-8.192-8.192H380.928c-4.096 0-8.192 4.096-8.192 8.192v126.976c0 4.096 4.096 8.192 8.192 8.192h114.688v86.016h-174.08c-2.048 0-4.096 2.048-4.096 4.096V634.88h-26.624c-2.048-2.048-4.096 0-4.096 2.048v83.968c0 2.048 2.048 4.096 4.096 4.096h83.968c2.048 0 4.096-2.048 4.096-4.096v-83.968c0-2.048-2.048-4.096-4.096-4.096H348.16v-51.2c0-2.048 2.048-4.096 4.096-4.096h143.36v55.296h-26.624c-2.048 0-4.096 2.048-4.096 4.096v83.968c0 2.048 2.048 4.096 4.096 4.096H552.96c2.048 0 4.096-2.048 4.096-4.096v-83.968c0-2.048-2.048-4.096-4.096-4.096h-26.624v-55.296h143.36c2.048 0 4.096 2.048 4.096 4.096v51.2h-26.624c-2.048 0-4.096 2.048-4.096 4.096v83.968c0 2.048 2.048 4.096 4.096 4.096h83.968c2.048 0 4.096-2.048 4.096-4.096v-83.968c2.048-2.048 0-4.096-2.048-4.096z" fill="#FFFFFF" p-id="3371"></path></svg>